# xmcd
#
# Track frame offsets: 
#        150
#        21228
#        36301
#        51445
#        69889
#        85693
#        104530
#        120370
#        131439
#        149614
#        163282
#        178582
#        194993
#        212684
#        231256
#        245399
#
# Disc length: 3538 seconds
#
# Revision: 0
# Processed by: cddbd v1.5.2PL0 Copyright (c) Steve Scherf et al.
# Submitted via: ExactAudioCopy v0.99pb3
#
DISCID=ed0dd010
DTITLE=Various Artist - Tomorrow [CD1]
DYEAR=2006
DGENRE=Pop/Rock
TTITLE0=Architecture In Helsinki - Do The Whirlwind
TTITLE1=Bob Evans - Don't You Think It's Time
TTITLE2=Boy Kill Boy - Suzie
TTITLE3=Brenden Welch - Burn
TTITLE4=Cartel - Honestly
TTITLE5=Cheyenne Kimball - Hanging On
TTITLE6=Embassy - Gravity
TTITLE7=Girls In Hawaii - Short Song For A Short Mind
TTITLE8=Greg Laswell - Sing, Theresa Says
TTITLE9=Head Automatica - Nowhere Fast
TTITLE10=Infadels - Can't Get Enough
TTITLE11=Infusion - Natural
TTITLE12=James Morrison - Better Man
TTITLE13=Jessie Baylin - My Love Is Like A Sparrow
TTITLE14=Jonas Bros - Time For Me To Fly
TTITLE15=Jordan Lawhead - The Way It Is
EXTD=
EXTT0=
EXTT1=
EXTT2=
EXTT3=
EXTT4=
EXTT5=
EXTT6=
EXTT7=
EXTT8=
EXTT9=
EXTT10=
EXTT11=
EXTT12=
EXTT13=
EXTT14=
EXTT15=
PLAYORDER=
